<?xml version="1.0" encoding="iso-8859-1"?>
<!-- Generator: Adobe Illustrator 24.1.2, SVG Export Plug-In . SVG Version: 6.00 Build 0)  -->
<svg version="1.1" baseProfile="basic" id="Layer_1"
	 xmlns="http://www.w3.org/2000/svg" xmlns:xlink="http://www.w3.org/1999/xlink" x="0px" y="0px" viewBox="0 0 50 50"
	 xml:space="preserve">
<path d="M47.819,32.652L33.02,6.535C32.133,4.972,30.466,4,28.669,4H20c-0.357,0-0.687,0.19-0.865,0.499
	c-0.179,0.31-0.18,0.69-0.002,0.999l23,40C42.312,45.81,42.643,46,43,46c0.01,0,0.02,0,0.029,0c0.368-0.011,0.7-0.224,0.865-0.553
	l4.047-8.094C48.688,35.861,48.642,34.104,47.819,32.652z"/>
<path d="M27.84,28.457l-11-17C16.655,11.172,16.339,11,16,11c-0.007,0-0.014,0-0.021,0c-0.347,0.008-0.665,0.194-0.841,0.493l-10,17
	c-0.182,0.309-0.184,0.692-0.006,1.003C5.31,29.808,5.642,30,6,30h21c0.366,0,0.703-0.2,0.879-0.522
	C28.054,29.156,28.039,28.765,27.84,28.457z"/>
<path d="M36.874,44.515l-5-9C31.698,35.197,31.363,35,31,35H3c-0.354,0-0.683,0.188-0.862,0.493
	c-0.18,0.305-0.184,0.683-0.012,0.992l5,9C7.302,45.803,7.637,46,8,46h28c0.354,0,0.683-0.188,0.862-0.493
	C37.042,45.202,37.046,44.824,36.874,44.515z"/>
</svg>